<svg width="666" height="94" viewBox="0 0 666 94" fill="none" xmlns="http://www.w3.org/2000/svg">
<g clip-path="url(#clip0_3712_58038)">
<path d="M93.53 27.8C89.0146 27.4067 84.4674 27.5949 80 28.36C79.1589 28.4935 78.3272 28.6805 77.51 28.92C74.34 29.8385 71.3738 31.3521 68.77 33.38C66.3901 35.2637 64.4885 37.6826 63.22 40.44C61.8967 43.3732 61.2377 46.5625 61.29 49.78C61.29 54.52 62.6233 58.2367 65.29 60.93C67.9567 63.6233 72.69 65.6467 79.49 67C81.49 67.41 83.12 67.78 84.37 68.14C85.3727 68.3966 86.3303 68.8047 87.21 69.35C87.7665 69.6953 88.2057 70.2008 88.47 70.8C88.691 71.4428 88.7926 72.1206 88.77 72.8C88.7685 73.4823 88.5898 74.1525 88.2515 74.745C87.9132 75.3375 87.4268 75.832 86.84 76.18C85.369 77.1201 83.6442 77.5845 81.9 77.51C76.4333 77.51 70.6467 75.42 64.54 71.24V90.44C69.8685 92.592 75.5536 93.725 81.3 93.78C85.338 93.8194 89.3603 93.2703 93.24 92.15C96.5902 91.2032 99.7388 89.6509 102.53 87.57C105.067 85.6326 107.12 83.134 108.53 80.27C110.014 77.2335 110.761 73.8896 110.71 70.51C110.788 68.3326 110.433 66.1614 109.665 64.1221C108.898 62.0829 107.734 60.2161 106.24 58.63C103.28 55.5434 98.7833 53.3967 92.75 52.19C90.5833 51.71 88.8333 51.3133 87.5 51C86.4536 50.7851 85.4433 50.4214 84.5 49.92C83.9384 49.6446 83.4768 49.2006 83.18 48.65C82.9517 48.0994 82.8459 47.5056 82.87 46.91C82.8631 46.2481 83.0339 45.5965 83.3646 45.0232C83.6952 44.4498 84.1737 43.9756 84.75 43.65C86.2359 42.8184 87.9177 42.4006 89.62 42.44C92.6703 42.5164 95.5 43.5 98.55 44.15C110.99 46.9 118.12 43.3 123.55 38.15V91.49H145.37V47.85H157.78V29.65H145.41V11.08H123.59C122.32 25.89 111.51 30.39 93.53 27.8Z" fill="#4CB087"/>
<path d="M51.72 20.44H23.63V35.63H50.16V55.63H23.63V71.32H51.72V91.32H0V0.420044H51.72V20.44Z" fill="#4CB087"/>
<path d="M208.37 29.48H230.31V91.33H208.37V84.46C203.703 90.3334 197.393 93.2667 189.44 93.26C185.166 93.3139 180.929 92.4725 177 90.79C173.268 89.1743 169.903 86.8165 167.11 83.86C164.252 80.8287 162.02 77.2642 160.54 73.37C158.937 69.1767 158.136 64.7192 158.18 60.23C158.16 55.9238 158.94 51.6514 160.48 47.63C161.928 43.7724 164.108 40.2309 166.9 37.2C169.724 34.1068 173.171 31.6474 177.015 29.984C180.859 28.3206 185.012 27.491 189.2 27.55C192.787 27.4521 196.353 28.1224 199.659 29.5159C202.965 30.9095 205.936 32.9942 208.37 35.63V29.48ZM180.89 60.23C180.846 64.0002 182.282 67.6372 184.89 70.36C186.156 71.6497 187.67 72.6701 189.34 73.36C191.134 74.0998 193.059 74.4705 195 74.45C196.884 74.4582 198.75 74.0911 200.49 73.37C202.163 72.6801 203.68 71.6597 204.95 70.37C206.197 69.0614 207.211 67.5497 207.95 65.9C208.722 64.1981 209.114 62.3487 209.1 60.48C209.124 58.5962 208.749 56.7286 208 55C207.272 53.3296 206.256 51.7998 205 50.48C203.73 49.1908 202.213 48.1705 200.54 47.48C198.787 46.7387 196.903 46.3578 195 46.36C193.077 46.3431 191.169 46.7103 189.39 47.44C187.72 48.1307 186.207 49.151 184.94 50.44C183.68 51.7117 182.664 53.2028 181.94 54.84C181.213 56.5424 180.856 58.3794 180.89 60.23V60.23Z" fill="#4CB087"/>
<path d="M264.94 47.68V91.33H243.12V47.68H235.89V29.48H243.12V10.91H264.94V29.48H277.36V47.68H264.94Z" fill="#4CB087"/>
<path d="M299.83 64.0801C299.83 73.4867 304.25 78.1901 313.09 78.1901C315.235 78.2878 317.367 77.8007 319.257 76.7809C321.147 75.7611 322.724 74.2469 323.82 72.4001H344.92C340.66 86.5534 330.02 93.6267 313 93.62C308.117 93.6774 303.261 92.8856 298.65 91.28C294.515 89.8313 290.72 87.5512 287.5 84.5801C284.393 81.6761 281.945 78.14 280.32 74.21C278.585 69.9236 277.725 65.3337 277.79 60.71C277.724 55.9575 278.541 51.234 280.2 46.78C281.702 42.8064 284.049 39.2066 287.08 36.23C290.167 33.2677 293.844 30.9882 297.87 29.54C302.451 27.9108 307.288 27.1149 312.15 27.19C316.956 27.1166 321.737 27.9127 326.26 29.54C330.259 30.9926 333.884 33.3191 336.87 36.35C339.848 39.4602 342.111 43.1837 343.5 47.26C345.089 51.94 345.864 56.8581 345.79 61.8V64.0801H299.83ZM325.38 51.42C324.764 48.5397 323.197 45.9506 320.93 44.07C318.557 42.2934 315.676 41.3274 312.711 41.3148C309.747 41.3022 306.858 42.2437 304.47 44C302.273 45.9208 300.85 48.5765 300.47 51.47H325.42L325.38 51.42Z" fill="#4CB087"/>
<path d="M358.58 0.400024H393.78C402.14 0.400024 408.49 2.40002 412.83 6.40002C417.17 10.4 419.34 16.1834 419.34 23.75C419.487 27.6971 418.638 31.6177 416.87 35.15C415.071 38.3193 412.471 40.9606 409.33 42.81C412.363 43.3318 415.291 44.3415 418 45.8C420.24 47.0148 422.207 48.6756 423.78 50.68C425.267 52.6166 426.355 54.8295 426.98 57.19C427.647 59.7092 427.983 62.3042 427.98 64.91C428.056 68.8027 427.295 72.6664 425.75 76.24C424.332 79.4612 422.186 82.3093 419.48 84.56C416.59 86.9132 413.243 88.6397 409.65 89.63C405.418 90.804 401.041 91.3696 396.65 91.31H358.65L358.58 0.400024ZM382.21 36.1H386.55C393.937 36.1 397.633 33.1634 397.64 27.29C397.647 21.4167 393.95 18.4834 386.55 18.49H382.21V36.1ZM382.21 72.99H387.39C393.337 72.99 397.597 72.2267 400.17 70.7C402.75 69.17 404.03 66.7 404.03 63.34C404.03 59.98 402.75 57.52 400.17 55.99C397.59 54.46 393.34 53.7 387.39 53.7H382.21V72.99Z" fill="#010101"/>
<path d="M432.16 59.85C432.13 55.4154 433.075 51.0283 434.93 47C436.76 43.0477 439.389 39.5169 442.65 36.63C446.096 33.6016 450.082 31.2504 454.4 29.7C459.175 27.9688 464.221 27.1085 469.3 27.16C474.326 27.117 479.322 27.9529 484.06 29.63C488.396 31.1582 492.406 33.4887 495.88 36.5C499.193 39.4028 501.842 42.9836 503.65 47C505.538 51.2262 506.486 55.8117 506.43 60.44C506.485 65.0734 505.518 69.662 503.6 73.88C501.753 77.8727 499.105 81.4432 495.82 84.37C492.352 87.407 488.313 89.7222 483.94 91.18C479.112 92.8254 474.041 93.6436 468.94 93.6C463.937 93.6487 458.963 92.8299 454.24 91.18C449.937 89.6976 445.978 87.3608 442.6 84.31C439.332 81.325 436.723 77.6909 434.94 73.64C433.051 69.2909 432.104 64.5913 432.16 59.85V59.85ZM455.16 60.09C455.134 62.0598 455.526 64.0128 456.31 65.82C457.033 67.4931 458.049 69.0237 459.31 70.34C460.58 71.6297 462.097 72.65 463.77 73.34C467.294 74.788 471.246 74.788 474.77 73.34C476.445 72.6527 477.962 71.6321 479.23 70.34C480.487 69.0206 481.502 67.4907 482.23 65.82C482.998 64.0503 483.387 62.1392 483.37 60.21C483.379 58.3204 482.99 56.4501 482.23 54.72C481.505 53.0479 480.489 51.5176 479.23 50.2C477.965 48.9049 476.447 47.8838 474.77 47.2C473.027 46.4766 471.158 46.1042 469.27 46.1042C467.383 46.1042 465.514 46.4766 463.77 47.2C462.095 47.8863 460.577 48.9071 459.31 50.2C458.059 51.5015 457.044 53.0107 456.31 54.66C455.549 56.3678 455.167 58.2204 455.19 60.09H455.16Z" fill="#010101"/>
<path d="M510.69 59.85C510.655 55.4149 511.601 51.0268 513.46 47C515.29 43.0477 517.919 39.517 521.18 36.63C524.624 33.5994 528.611 31.248 532.93 29.7C537.701 27.9688 542.745 27.1084 547.82 27.16C552.85 27.1162 557.848 27.9521 562.59 29.63C566.925 31.1606 570.934 33.4909 574.41 36.5C577.716 39.4084 580.365 42.9879 582.18 47C584.083 51.2262 585.045 55.8154 585 60.45C585.056 65.0846 584.086 69.6742 582.16 73.89C580.32 77.8843 577.675 81.4556 574.39 84.38C570.922 87.417 566.883 89.7322 562.51 91.19C557.682 92.8354 552.611 93.6536 547.51 93.61C542.504 93.6586 537.527 92.8399 532.8 91.19C528.501 89.7051 524.546 87.3685 521.17 84.32C517.902 81.335 515.293 77.7009 513.51 73.65C511.601 69.3023 510.64 64.598 510.69 59.85V59.85ZM533.69 60.09C533.664 62.0599 534.056 64.0128 534.84 65.82C535.571 67.4891 536.586 69.0185 537.84 70.34C539.114 71.63 540.634 72.6503 542.31 73.34C545.834 74.7881 549.786 74.7881 553.31 73.34C554.985 72.6527 556.502 71.6321 557.77 70.34C559.024 69.0181 560.039 67.4888 560.77 65.82C561.538 64.0504 561.927 62.1392 561.91 60.21C561.918 58.3204 561.53 56.4501 560.77 54.72C560.041 53.0499 559.026 51.5202 557.77 50.2C556.505 48.9049 554.987 47.8838 553.31 47.2C551.567 46.4766 549.698 46.1042 547.81 46.1042C545.923 46.1042 544.054 46.4766 542.31 47.2C540.632 47.8861 539.111 48.9069 537.84 50.2C536.596 51.5069 535.581 53.0148 534.84 54.66C534.075 56.3671 533.69 58.2196 533.71 60.09H533.69Z" fill="#010101"/>
<path d="M611 0.5V51.77L633.91 29.47H663.82L632.86 58L665.66 91.27H635L611 66.12V91.31H589.21V0.5H611Z" fill="#010101"/>
</g>
<defs>
<clipPath id="clip0_3712_58038">
<rect width="666" height="94" fill="white"/>
</clipPath>
</defs>
</svg>
