<svg width="52" height="52" viewBox="0 0 52 52" fill="none" xmlns="http://www.w3.org/2000/svg">
<path d="M27.0682 5.03226H24.9327L19.5493 8.93088V5.83871H21.1622V1H5.03318V5.83871H6.64608V18.2747L1 22.3622V24.3871H5.03226V51H46.9677V24.3871H51V22.3622L27.0682 5.03226ZM6.64516 2.6129H19.5484V4.22581H6.64516V2.6129ZM8.25806 5.83871H17.9355V10.0986L8.25806 17.1069V5.83871ZM32.4516 49.3871H19.5484V38.0968C19.5484 34.5392 22.4424 31.6452 26 31.6452C29.5576 31.6452 32.4516 34.5392 32.4516 38.0968V49.3871ZM34.0645 49.3871V38.0968C34.0645 33.6498 30.447 30.0323 26 30.0323C21.553 30.0323 17.9355 33.6498 17.9355 38.0968V49.3871H6.64516V24.3871H45.3548V49.3871H34.0645ZM46.1613 22.7742H3.18157L25.4553 6.64516H26.5456L48.8194 22.7742H46.1613Z" fill="#BEBEBE" stroke="#BEBEBE"/>
</svg>
