<svg
    width="54"
    height="70"
    viewBox="0 0 54 70"
    fill="none"
    xmlns="http://www.w3.org/2000/svg"
  >
    <path
      d="M54 26.9725C54 41.869 27 70 27 70C27 70 0 41.869 0 26.9725C0 12.076 12.0883 0 27 0C41.9117 0 54 12.076 54 26.9725Z"
      fill="#E8F9EE"
    />
    <path
      d="M48 29C48 40.598 27 62.5 27 62.5C27 62.5 6 40.598 6 29C6 17.402 15.402 8 27 8C38.598 8 48 17.402 48 29Z"
      fill="#74D8AF"
    />
    <g filter="url(#filter0_d_1700_60988)">
      <circle cx="27" cy="29" r="12" fill="white" />
    </g>
    <defs>
      <filter
        id="filter0_d_1700_60988"
        x="11"
        y="17"
        width="32"
        height="32"
        filterUnits="userSpaceOnUse"
        color-interpolation-filters="sRGB"
      >
        <feFlood flood-opacity="0" result="BackgroundImageFix" />
        <feColorMatrix
          in="SourceAlpha"
          type="matrix"
          values="0 0 0 0 0 0 0 0 0 0 0 0 0 0 0 0 0 0 127 0"
          result="hardAlpha"
        />
        <feOffset dy="4" />
        <feGaussianBlur stdDeviation="2" />
        <feComposite in2="hardAlpha" operator="out" />
        <feColorMatrix
          type="matrix"
          values="0 0 0 0 0 0 0 0 0 0 0 0 0 0 0 0 0 0 0.25 0"
        />
        <feBlend
          mode="normal"
          in2="BackgroundImageFix"
          result="effect1_dropShadow_1700_60988"
        />
        <feBlend
          mode="normal"
          in="SourceGraphic"
          in2="effect1_dropShadow_1700_60988"
          result="shape"
        />
      </filter>
    </defs>
  </svg>