<svg  viewBox="0 0 57 57" fill="none" xmlns="http://www.w3.org/2000/svg">
<rect width="57" height="57" fill="white"/>
<path d="M22.3476 17.5967H10.7447V24.1301H21.6869V32.7268H10.7447V39.4751H22.3476V48.0718H1V9H22.3476V17.5967Z" fill="#4CB087"/>
<path d="M27.3867 9H41.9213C45.3897 9 47.9911 9.85967 49.8079 11.579C51.5834 13.2983 52.4918 15.7914 52.4918 19.0581C52.4918 21.0353 52.1615 22.6687 51.4595 23.9582C50.7576 25.2477 49.7253 26.3652 48.3627 27.2679C49.7666 27.5258 50.9228 27.9556 51.9137 28.5574C52.9047 29.1162 53.6893 29.8469 54.3086 30.6636C54.928 31.4802 55.3822 32.4259 55.63 33.4575C55.8777 34.4891 56.0429 35.6066 56.0429 36.7672C56.0429 38.6155 55.7538 40.2059 55.1345 41.6243C54.5151 43.0427 53.648 44.2463 52.5331 45.1919C51.4183 46.1375 50.0556 46.8683 48.4866 47.3841C46.8762 47.8569 45.1007 48.1148 43.1187 48.1148H27.428V9H27.3867ZM37.1315 24.345H38.907C41.9625 24.345 43.4903 23.0985 43.4903 20.5625C43.4903 18.0265 41.9625 16.78 38.907 16.78H37.1315V24.345ZM37.1315 40.2058H39.2786C41.7561 40.2058 43.4903 39.862 44.5639 39.2172C45.6375 38.5725 46.1743 37.4979 46.1743 36.0365C46.1743 34.575 45.6375 33.5434 44.5639 32.8557C43.4903 32.211 41.7561 31.8671 39.2786 31.8671H37.1315V40.2058Z" fill="#010101"/>
</svg>
